<?xml version="1.0" standalone="no"?>
<!DOCTYPE svg PUBLIC "-//W3C//DTD SVG 20010904//EN"
 "http://www.w3.org/TR/2001/REC-SVG-20010904/DTD/svg10.dtd">
<svg version="1.0" xmlns="http://www.w3.org/2000/svg"
 width="564.000000pt" height="564.000000pt" viewBox="0 0 564.000000 564.000000"
 preserveAspectRatio="xMidYMid meet">
<metadata>
Created by potrace 1.11, written by Peter Selinger 2001-2013
</metadata>
<g transform="translate(0.000000,564.000000) scale(0.100000,-0.100000)"
fill="#000000" stroke="none">
<path d="M1058 5253 c-251 -1266 -898 -4546 -984 -4988 -25 -126 -47 -238 -50
-247 -5 -17 133 -18 2791 -18 2659 0 2797 1 2793 18 -2 9 -256 1278 -564 2819
l-559 2803 -1675 0 -1676 0 -76 -387z m2653 -1406 l874 -743 3 -104 c2 -58 0
-186 -3 -285 l-7 -181 -67 -54 c-36 -30 -174 -147 -306 -260 -217 -186 -1316
-1116 -1357 -1148 -15 -12 -81 40 -570 449 -461 386 -847 711 -1135 956 l-53
44 1 292 0 292 862 742 c474 408 867 742 873 742 7 1 405 -333 885 -742z"/>
<path d="M2079 3740 c-409 -352 -746 -646 -748 -652 -3 -8 58 -10 230 -5 129
4 808 7 1509 7 l1275 0 -25 24 c-40 39 -1484 1266 -1491 1266 -3 0 -340 -288
-750 -640z"/>
<path d="M1650 2990 c-6 -11 -31 -71 -54 -133 -24 -61 -53 -136 -65 -164 l-21
-53 39 0 c36 0 40 3 55 40 l16 40 73 0 74 0 16 -40 c14 -37 19 -40 52 -40 46
0 47 -9 -39 205 l-64 160 -35 3 c-28 2 -38 -2 -47 -18z m84 -187 c7 -22 4 -23
-40 -23 -46 0 -46 0 -41 29 4 17 14 47 23 68 l16 38 18 -45 c9 -25 21 -55 24
-67z"/>
<path d="M1920 2826 l0 -186 35 0 35 0 0 76 0 75 33 -3 c27 -2 41 -15 86 -75
51 -69 57 -73 93 -73 21 0 38 2 38 5 0 12 -55 92 -83 122 -28 30 -29 33 -11
39 60 21 88 88 60 142 -24 46 -48 54 -173 60 l-113 5 0 -187z m208 102 c18
-18 14 -56 -7 -68 -11 -5 -45 -10 -75 -10 l-56 0 0 45 0 45 63 0 c36 0 68 -5
75 -12z"/>
<path d="M2290 2824 l0 -185 31 3 31 3 -1 123 c-1 67 2 122 6 122 5 0 22 -55
39 -122 l30 -123 36 -3 c34 -3 38 0 44 25 4 15 20 75 35 133 l27 105 1 -132 1
-133 35 0 35 0 -2 183 -3 182 -52 3 -52 3 -11 -43 c-43 -163 -54 -198 -61
-186 -4 7 -17 52 -28 98 -33 131 -32 130 -91 130 l-50 0 0 -186z"/>
<path d="M2751 2829 c-39 -99 -71 -182 -71 -185 0 -2 17 -4 38 -4 36 0 40 3
52 40 l13 40 77 0 77 0 12 -40 c11 -38 14 -40 51 -40 22 0 40 2 40 5 0 11
-134 341 -143 353 -5 6 -24 12 -42 12 l-33 0 -71 -181z m132 23 c26 -66 24
-72 -29 -72 -33 0 -45 4 -42 13 3 6 13 36 23 65 19 59 24 58 48 -6z"/>
<path d="M3087 3004 c-4 -4 -7 -88 -7 -186 l0 -178 35 0 35 0 0 133 c0 77 4
126 9 117 5 -8 21 -68 37 -132 l28 -118 36 0 36 0 28 118 c16 64 32 124 37
132 5 9 9 -40 9 -117 l0 -133 35 0 35 0 -2 183 -3 182 -55 0 -55 0 -30 -117
c-16 -65 -32 -118 -35 -118 -3 0 -19 53 -36 118 l-30 117 -50 3 c-27 2 -53 0
-57 -4z"/>
<path d="M3517 3003 c-4 -3 -7 -87 -7 -185 l0 -178 140 0 140 0 0 30 0 29
-102 3 -103 3 -3 48 -3 47 95 0 96 0 0 30 0 29 -92 3 -93 3 -3 38 -3 37 100 0
101 0 0 35 0 35 -128 0 c-71 0 -132 -3 -135 -7z"/>
<path d="M3837 3004 c-3 -3 19 -44 49 -90 l55 -84 -39 -57 c-21 -32 -48 -75
-61 -95 l-23 -38 44 0 c42 0 44 2 82 60 21 33 42 58 46 55 4 -2 22 -29 41 -60
32 -53 35 -55 76 -55 24 0 43 2 43 5 0 3 -27 46 -60 95 l-60 89 55 85 c30 46
55 87 55 90 0 3 -18 6 -39 6 -38 0 -41 -3 -77 -61 l-37 -61 -38 61 c-35 55
-42 61 -72 61 -19 0 -36 -3 -40 -6z"/>
<path d="M2507 2550 l-1209 -5 26 -24 c14 -14 26 -30 26 -37 0 -17 67 -74 88
-74 23 0 190 -135 845 -682 543 -453 549 -458 571 -440 12 9 222 186 466 393
524 442 816 684 844 698 12 6 40 15 64 21 23 6 56 23 73 38 29 26 62 99 52
114 -2 5 -147 7 -321 6 -174 -2 -861 -5 -1525 -8z"/>
</g>
</svg>
