<svg id="Capa_1" data-name="Capa 1" xmlns="http://www.w3.org/2000/svg" viewBox="0 0 512.96 109.61"><defs><style>.cls-1{fill:#267db8;}.cls-2{fill:#afd7f0;}.cls-3{fill:#1c2748;}</style></defs><title>contactocinta</title><polygon class="cls-1" points="512.96 108.63 24.45 109.61 24.45 45.98 500.51 46.37 512.96 108.63"/><circle class="cls-2" cx="49.33" cy="49.33" r="49.33"/><path class="cls-3" d="M71.08,98.74l9.12,7.9q8.76,7.59,17.52,15.17a8.4,8.4,0,0,0,11.31,0q12.79-11.06,25.55-22.16l1.07-.92c0,.3.06.48.06.66q0,18.87,0,37.74a11.77,11.77,0,0,1-.31,1.83L131,135.14l-15.77-13.69a1.62,1.62,0,1,0-2.08,2.41L133,141a6.08,6.08,0,0,0,.51.35,5.12,5.12,0,0,1-3.11,1.11H116.2l-39.62,0a5.69,5.69,0,0,1-3.71-1.38l3.48-3,16.26-14.05a3.55,3.55,0,0,0,.73-.78,1.55,1.55,0,0,0-.33-2,1.58,1.58,0,0,0-2.15.05c-1.67,1.43-3.33,2.88-5,4.32L71.61,138.07l-.46.36c0-.6-.12-1.09-.12-1.58q0-17.25,0-34.5c0-.92,0-1.84,0-2.76C71,99.35,71,99.12,71.08,98.74Z" transform="translate(-54.04 -68.93)"/><path class="cls-3" d="M72.47,95.77A5.43,5.43,0,0,1,76,94c.18,0,.36,0,.54,0l53.56,0a5.69,5.69,0,0,1,4.14,1.77L131,98.59l-23.89,20.67a5.38,5.38,0,0,1-7.45,0L72.82,96A2.17,2.17,0,0,0,72.47,95.77Z" transform="translate(-54.04 -68.93)"/></svg>