<svg id="Capa_1" data-name="Capa 1" xmlns="http://www.w3.org/2000/svg" viewBox="0 0 432.57 122.26"><defs><style>.cls-1{fill:#267db8;}.cls-2{fill:#afd7f0;}.cls-3{fill:#1c2748;}</style></defs><title>prueba cinta 12 feb</title><polygon class="cls-1" points="432.57 122.17 52 122.26 52 51.86 422.87 52.3 432.57 122.17"/><circle class="cls-2" cx="54.57" cy="54.57" r="54.57"/><path class="cls-3" d="M74.05,22.4l.79.23a6.79,6.79,0,0,1,5,6.45q0,13.33,0,26.65v.48c-8.5.48-15,4.29-18.46,12.11s-2.18,15.12,3.13,21.84H32.44a6.75,6.75,0,0,1-6.81-6.79q0-27,0-54a6.74,6.74,0,0,1,5.67-6.9,1,1,0,0,0,.2-.09ZM47.69,46.13H47c-3.73,0-7.45,0-11.18,0a3.25,3.25,0,0,0-3.34,4.14A3.4,3.4,0,0,0,36,52.91H53.59c2,0,3.91,0,5.87,0a3.39,3.39,0,0,0,3.34-4.08,3.14,3.14,0,0,0-3.37-2.69Zm-.07-13.55H35.89a3.2,3.2,0,0,0-3.28,2.1,3.43,3.43,0,0,0,3.26,4.67q11.77,0,23.54,0a3.42,3.42,0,0,0,3.29-4.52,3.17,3.17,0,0,0-3.33-2.25ZM44.28,59.68H36.1a6.56,6.56,0,0,0-1.12.1,3.38,3.38,0,0,0,0,6.57,5.1,5.1,0,0,0,.89.1h16.7A3.39,3.39,0,0,0,56,62.33a3.13,3.13,0,0,0-3.34-2.65C49.88,59.67,47.08,59.68,44.28,59.68Zm0,13.55H36.11a6.66,6.66,0,0,0-1.17.11,3.15,3.15,0,0,0-2.53,3.22,3.19,3.19,0,0,0,2.47,3.33,5.32,5.32,0,0,0,1.06.11H52.57A3.39,3.39,0,0,0,56,75.89a3.13,3.13,0,0,0-3.34-2.65C49.89,73.22,47.09,73.23,44.29,73.23Z" transform="translate(-0.71 -1.03)"/><path class="cls-3" d="M93.39,76.62A13.55,13.55,0,1,1,79.9,63.05,13.56,13.56,0,0,1,93.39,76.62Zm-15.58-.33c-.45-.33-.84-.62-1.23-.92a3,3,0,0,0-2.26-.67c-1.75.22-3.39,1.26-3.17,3.42a4.07,4.07,0,0,0,1.53,2.79c1.2,1,2.39,2,3.6,3a3.66,3.66,0,0,0,5.39-.74c2.23-3.35,4.47-6.69,6.67-10.05a2.87,2.87,0,0,0,.41-1.43,5.41,5.41,0,0,0-1.43-3.46A.87.87,0,0,0,87,68a3.28,3.28,0,0,0-4.45,1.09l-.47.7Z" transform="translate(-0.71 -1.03)"/></svg>