<svg id="Capa_1" data-name="Capa 1" xmlns="http://www.w3.org/2000/svg" viewBox="0 0 512.96 109.61"><defs><style>.cls-1{fill:#267db8;}.cls-2{fill:#afd7f0;}.cls-3{fill:#1c2748;}</style></defs><title>cotizacioncinta</title><polygon class="cls-1" points="512.96 108.63 24.45 109.61 24.45 45.98 500.51 46.37 512.96 108.63"/><circle class="cls-2" cx="49.33" cy="49.33" r="49.33"/><path class="cls-3" d="M117.29,87.21l.69.2A5.91,5.91,0,0,1,122.3,93q0,11.59,0,23.19v.41c-7.4.41-13,3.74-16.06,10.54s-1.9,13.16,2.72,19H81.09a5.87,5.87,0,0,1-5.93-5.91q0-23.48,0-47a5.86,5.86,0,0,1,4.93-6,.84.84,0,0,0,.18-.08ZM94.35,107.85h-.59c-3.24,0-6.48,0-9.72,0a2.83,2.83,0,0,0-2.91,3.6,3,3,0,0,0,3,2.29H99.49c1.7,0,3.41,0,5.11,0a3,3,0,0,0,2.9-3.55,2.73,2.73,0,0,0-2.93-2.34ZM94.3,96.06H84.08a2.78,2.78,0,0,0-2.85,1.82A3,3,0,0,0,84.07,102q10.24,0,20.48,0A3,3,0,0,0,107.41,98a2.76,2.76,0,0,0-2.9-2Zm-2.91,23.58H84.27a5.71,5.71,0,0,0-1,.09,2.94,2.94,0,0,0,0,5.71,4.44,4.44,0,0,0,.78.09H98.6a3,3,0,0,0,3-3.59,2.72,2.72,0,0,0-2.91-2.3Zm0,11.79H84.28a5.8,5.8,0,0,0-1,.09,2.74,2.74,0,0,0-2.2,2.8,2.78,2.78,0,0,0,2.15,2.9,4.63,4.63,0,0,0,.92.1H98.6a3,3,0,0,0,3-3.58,2.72,2.72,0,0,0-2.9-2.31Z" transform="translate(-54.04 -68.93)"/><path class="cls-3" d="M134.11,134.37a11.79,11.79,0,1,1-11.73-11.8A11.8,11.8,0,0,1,134.11,134.37Zm-13.56-.29c-.39-.29-.73-.54-1.07-.8a2.6,2.6,0,0,0-2-.58c-1.52.19-2.95,1.09-2.76,3a3.54,3.54,0,0,0,1.33,2.43c1,.87,2.08,1.75,3.14,2.6a3.18,3.18,0,0,0,4.69-.64c1.94-2.91,3.89-5.82,5.81-8.75a2.49,2.49,0,0,0,.35-1.24,4.71,4.71,0,0,0-1.25-3,.76.76,0,0,0-.24-.17,2.85,2.85,0,0,0-3.87.94l-.41.61Z" transform="translate(-54.04 -68.93)"/></svg>