<svg id="Capa_1" data-name="Capa 1" xmlns="http://www.w3.org/2000/svg" viewBox="0 0 512.96 109.61"><defs><style>.cls-1{fill:#267db8;}.cls-2{fill:#afd7f0;}.cls-3{fill:#1c2748;}</style></defs><title>servicioscinta</title><polygon class="cls-1" points="512.96 108.63 24.45 109.61 24.45 45.98 500.51 46.37 512.96 108.63"/><circle class="cls-2" cx="49.33" cy="49.33" r="49.33"/><path class="cls-3" d="M132.43,120.92a28.82,28.82,0,0,1-6.55,15.8l2.35,2.34c1,1,2.09,2.06,3.12,3.12a2.57,2.57,0,1,1-3.65,3.61c-1.81-1.79-3.6-3.6-5.43-5.44a28.84,28.84,0,0,1-15.8,6.57v.69q0,3.4,0,6.81a2.59,2.59,0,1,1-5.16,0q0-3.37,0-6.74v-.75a29,29,0,0,1-16-6.69,2.46,2.46,0,0,1-.33.61c-1.64,1.66-3.28,3.32-4.95,5a2.55,2.55,0,0,1-4.36-1.11,2.5,2.5,0,0,1,.75-2.54l4.9-4.91a5.57,5.57,0,0,1,.57-.44,28.88,28.88,0,0,1-6.63-15.87H67.75a2.59,2.59,0,1,1,0-5.16h7.53A28.79,28.79,0,0,1,81.84,100l-3.22-3.21c-.73-.73-1.48-1.46-2.2-2.2A2.57,2.57,0,1,1,80.07,91c1.63,1.61,3.24,3.23,4.86,4.86a6,6,0,0,1,.46.59,28.87,28.87,0,0,1,15.87-6.63v-.69c0-2.36,0-4.71,0-7.07a2.59,2.59,0,0,1,2-2.53,2.53,2.53,0,0,1,2.82,1.35,3.45,3.45,0,0,1,.3,1.37c0,2.27,0,4.54,0,6.81v.75a29,29,0,0,1,15.95,6.68,2.6,2.6,0,0,1,.34-.61q2.48-2.51,5-5a2.49,2.49,0,0,1,2.92-.52,2.54,2.54,0,0,1,1.47,2.52,2.75,2.75,0,0,1-.92,1.8c-1.61,1.6-3.21,3.21-4.82,4.81a3.84,3.84,0,0,1-.59.4,28.92,28.92,0,0,1,6.66,15.9H140a2.58,2.58,0,1,1,0,5.16h-7.6ZM101.24,95a23.37,23.37,0,0,0-12,5c0,.07,0,.1,0,.11q3.93,3.95,7.87,7.89a.49.49,0,0,0,.43.1c1.23-.54,2.45-1.1,3.72-1.68ZM85.43,133l8.12-8.11L91.93,121H80.46A23.31,23.31,0,0,0,85.43,133Zm24.89-25,8.12-8.14a23.31,23.31,0,0,0-12-4.92v11.46Zm-29.86,7.73H91.92l1.6-3.87-8.13-8.11A23.3,23.3,0,0,0,80.46,115.74Zm33.7-3.91,1.61,3.89h11.46a23.28,23.28,0,0,0-5-12Zm1.64,9.12c-.51,1.19-1,2.33-1.5,3.42a.65.65,0,0,0,.13.92q3.55,3.51,7.06,7a9,9,0,0,1,.64.83,23.52,23.52,0,0,0,5.1-12.23Zm-14.56,9.35c-1.19-.51-2.33-1-3.42-1.5a.65.65,0,0,0-.93.13q-3.41,3.46-6.86,6.88c-.29.29-.62.53-1,.84a23.48,23.48,0,0,0,12.21,5.09Zm5.22,11.44a23.47,23.47,0,0,0,12.1-5c-2.68-2.68-5.32-5.32-8-8a.49.49,0,0,0-.43-.09c-1.23.54-2.45,1.1-3.71,1.67Zm-2.61-18a5.42,5.42,0,1,0-5.43-5.45A5.47,5.47,0,0,0,103.86,123.77Z" transform="translate(-54.04 -68.93)"/></svg>