<svg id="Capa_1" data-name="Capa 1" xmlns="http://www.w3.org/2000/svg" viewBox="0 0 512.96 109.61"><defs><style>.cls-1{fill:#267db8;}.cls-2{fill:#afd7f0;}.cls-3{fill:#1c2748;}</style></defs><title>terminalcinta</title><polygon class="cls-1" points="512.96 108.63 24.45 109.61 24.45 45.98 500.51 46.37 512.96 108.63"/><circle class="cls-2" cx="49.33" cy="49.33" r="49.33"/><path class="cls-3" d="M131.07,107.45a28.27,28.27,0,0,0-27.6-22.55c-.91,0-1.81.09-2.72.16-.38,0-.75.08-1.13.13A27.42,27.42,0,0,0,80.28,97.28a27.13,27.13,0,0,0-3.5,24.38,42,42,0,0,0,6.47,12.26A87.26,87.26,0,0,0,103.07,153a.66.66,0,0,0,.92,0,93.14,93.14,0,0,0,15.47-13.76A55.7,55.7,0,0,0,128.52,126,28.82,28.82,0,0,0,131.07,107.45Zm-27.57,27.68a22,22,0,1,1,21.88-22A21.93,21.93,0,0,1,103.51,135.13Z" transform="translate(-54.04 -68.93)"/><path class="cls-3" d="M108.68,118.79l1.25,1.16a7.35,7.35,0,0,1-5.14,4V113.54h3.82v-2.61h-3.83v-2.83a4,4,0,0,0-1.31-7.66,3.93,3.93,0,0,0-3.83,3c-.49,1.95.37,3.59,2.46,4.7V111H98.24v2.6h3.85v10.36a7.25,7.25,0,0,1-4.86-3.42l1.33-1.77a.72.72,0,0,0-.57-1.16l-4.33,0a9.75,9.75,0,0,0,19.46,0h-4A.72.72,0,0,0,108.68,118.79Zm-5.26-13.11a1.28,1.28,0,0,1-1.29-1.29,1.31,1.31,0,0,1,1.27-1.32,1.34,1.34,0,0,1,1.33,1.33A1.31,1.31,0,0,1,103.42,105.69Z" transform="translate(-54.04 -68.93)"/></svg>