<svg id="Capa_1" data-name="Capa 1" xmlns="http://www.w3.org/2000/svg" viewBox="0 0 44.71 33.55"><defs><style>.cls-1{fill:#1c2748;}</style></defs><title>contacto_12feb</title><path class="cls-1" d="M.69,10.7,7,16.16Q13,21.4,19.1,26.64a5.81,5.81,0,0,0,7.81,0Q35.75,19,44.56,11.32l.74-.63c0,.21,0,.33,0,.46q0,13,0,26.07a8.13,8.13,0,0,1-.21,1.26l-3-2.63-10.9-9.46a1.12,1.12,0,1,0-1.43,1.67L43.45,39.93a4.2,4.2,0,0,0,.35.24,3.54,3.54,0,0,1-2.15.77H31.87L4.49,41a3.93,3.93,0,0,1-2.56-1l2.4-2.08,11.23-9.71a2.46,2.46,0,0,0,.5-.54,1.07,1.07,0,0,0-.23-1.35,1.09,1.09,0,0,0-1.48,0l-3.45,3L1.06,37.87l-.32.25c0-.41-.08-.75-.08-1.09q0-11.92,0-23.84c0-.64,0-1.27,0-1.91C.65,11.12.67,11,.69,10.7Z" transform="translate(-0.64 -7.41)"/><path class="cls-1" d="M1.65,8.65A3.75,3.75,0,0,1,4.12,7.43c.12,0,.25,0,.37,0l37,0a3.93,3.93,0,0,1,2.86,1.22l-2.27,2L25.59,24.88a3.72,3.72,0,0,1-5.15,0L1.89,8.78A1.5,1.5,0,0,0,1.65,8.65Z" transform="translate(-0.64 -7.41)"/></svg>