<svg id="Capa_1" data-name="Capa 1" xmlns="http://www.w3.org/2000/svg" viewBox="0 0 44.71 33.55"><defs><style>.cls-1{fill:#1c2748;}</style></defs><title>icono contacto AO</title><path class="cls-1" d="M22.91,27.58,29.21,33q6.05,5.24,12.11,10.48a5.81,5.81,0,0,0,7.81,0Q58,35.87,66.79,28.21l.74-.63c0,.21,0,.33,0,.46q0,13,0,26.07a8.13,8.13,0,0,1-.21,1.26l-3-2.63-10.9-9.46A1.12,1.12,0,1,0,52,44.94L65.67,56.81a4.2,4.2,0,0,0,.35.24,3.54,3.54,0,0,1-2.15.77H54.09l-27.38,0a3.93,3.93,0,0,1-2.56-1l2.4-2.08L37.79,45.1a2.46,2.46,0,0,0,.5-.54,1.07,1.07,0,0,0-.23-1.35,1.09,1.09,0,0,0-1.48,0l-3.45,3-9.85,8.53L23,55c0-.41-.08-.75-.08-1.09q0-11.92,0-23.84c0-.64,0-1.27,0-1.91C22.87,28,22.89,27.84,22.91,27.58Z" transform="translate(-22.87 -24.29)"/><path class="cls-1" d="M23.87,25.53a3.75,3.75,0,0,1,2.47-1.22c.12,0,.25,0,.37,0l37,0a3.93,3.93,0,0,1,2.86,1.22l-2.27,2L47.81,41.76a3.72,3.72,0,0,1-5.15,0L24.11,25.66A1.5,1.5,0,0,0,23.87,25.53Z" transform="translate(-22.87 -24.29)"/></svg>