<svg id="Capa_1" data-name="Capa 1" xmlns="http://www.w3.org/2000/svg" viewBox="0 0 45.41 45.4"><defs><style>.cls-1{fill:#1c2748;}</style></defs><title>cotizacion_12feb</title><path class="cls-1" d="M33,1.61l.53.16A4.55,4.55,0,0,1,36.9,6.09q0,8.93,0,17.85v.32c-5.7.32-10,2.88-12.37,8.12S23.08,42.51,26.64,47H5.17A4.52,4.52,0,0,1,.6,42.47q0-18.08,0-36.16a4.51,4.51,0,0,1,3.8-4.62.64.64,0,0,0,.14-.06ZM15.38,17.51h-.45c-2.5,0-5,0-7.49,0A2.18,2.18,0,0,0,5.2,20.29,2.28,2.28,0,0,0,7.54,22h11.8c1.31,0,2.62,0,3.93,0a2.27,2.27,0,0,0,2.23-2.73,2.1,2.1,0,0,0-2.25-1.8Zm0-9.08H7.47a2.14,2.14,0,0,0-2.19,1.4A2.3,2.3,0,0,0,7.46,13q7.88,0,15.77,0a2.29,2.29,0,0,0,2.2-3A2.13,2.13,0,0,0,23.2,8.43ZM13.09,26.59H7.61a4.4,4.4,0,0,0-.75.07,2.26,2.26,0,0,0,0,4.4,3.42,3.42,0,0,0,.6.07H18.65A2.27,2.27,0,0,0,21,28.36a2.1,2.1,0,0,0-2.24-1.77Zm0,9.08H7.62a4.46,4.46,0,0,0-.79.07,2.11,2.11,0,0,0-1.7,2.15,2.14,2.14,0,0,0,1.65,2.23,3.56,3.56,0,0,0,.71.08H18.65A2.27,2.27,0,0,0,21,37.44a2.1,2.1,0,0,0-2.23-1.78Z" transform="translate(-0.59 -1.61)"/><path class="cls-1" d="M46,37.93a9.08,9.08,0,1,1-9-9.08A9.08,9.08,0,0,1,46,37.93Zm-10.44-.22-.82-.62a2,2,0,0,0-1.52-.45c-1.17.15-2.27.84-2.12,2.29a2.73,2.73,0,0,0,1,1.87c.8.67,1.6,1.35,2.41,2a2.45,2.45,0,0,0,3.61-.5c1.49-2.24,3-4.48,4.47-6.73a1.92,1.92,0,0,0,.27-1,3.63,3.63,0,0,0-1-2.32.58.58,0,0,0-.18-.13,2.2,2.2,0,0,0-3,.73l-.31.47Z" transform="translate(-0.59 -1.61)"/></svg>