<svg id="Capa_1" data-name="Capa 1" xmlns="http://www.w3.org/2000/svg" viewBox="0 0 38.39 38.39"><defs><style>.cls-1{fill:#1c2748;}</style></defs><title>icono cotizacion AO</title><path class="cls-1" d="M54.38,23.17l.45.13A3.85,3.85,0,0,1,57.65,27q0,7.55,0,15.09v.27c-4.82.27-8.47,2.43-10.46,6.86S46,57.75,49,61.55H30.82A3.82,3.82,0,0,1,27,57.71q0-15.29,0-30.57a3.82,3.82,0,0,1,3.21-3.91.54.54,0,0,0,.11-.05ZM39.45,36.61h-.38c-2.11,0-4.22,0-6.33,0A1.84,1.84,0,0,0,30.85,39a1.92,1.92,0,0,0,2,1.49h10c1.11,0,2.22,0,3.33,0A1.92,1.92,0,0,0,48,38.13,1.78,1.78,0,0,0,46.1,36.6Zm0-7.68H32.77a1.81,1.81,0,0,0-1.86,1.19,1.94,1.94,0,0,0,1.85,2.65H46.09A1.94,1.94,0,0,0,48,30.2a1.8,1.8,0,0,0-1.89-1.27Zm-1.9,15.35H32.89a3.72,3.72,0,0,0-.63.06,1.91,1.91,0,0,0,0,3.72,2.89,2.89,0,0,0,.51.06h9.46a1.92,1.92,0,0,0,2-2.34,1.77,1.77,0,0,0-1.89-1.5Zm0,7.68H32.89a3.77,3.77,0,0,0-.67.06,1.78,1.78,0,0,0-1.43,1.82,1.81,1.81,0,0,0,1.4,1.89,3,3,0,0,0,.6.06h9.43a1.92,1.92,0,0,0,2-2.33A1.77,1.77,0,0,0,42.29,52Z" transform="translate(-26.95 -23.17)"/><path class="cls-1" d="M65.33,53.87a7.68,7.68,0,1,1-7.64-7.68A7.68,7.68,0,0,1,65.33,53.87Zm-8.83-.19-.69-.52a1.69,1.69,0,0,0-1.28-.38c-1,.12-1.92.71-1.8,1.94a2.31,2.31,0,0,0,.87,1.58c.68.56,1.35,1.14,2,1.69a2.07,2.07,0,0,0,3.05-.42c1.26-1.9,2.53-3.79,3.78-5.69a1.62,1.62,0,0,0,.23-.81,3.07,3.07,0,0,0-.81-2,.49.49,0,0,0-.15-.11,1.86,1.86,0,0,0-2.52.61L59,50Z" transform="translate(-26.95 -23.17)"/></svg>