<svg id="Capa_1" data-name="Capa 1" xmlns="http://www.w3.org/2000/svg" viewBox="0 0 32.84 39.99"><defs><style>.cls-1{fill:#1c2748;}</style></defs><title>icono flota AO</title><path class="cls-1" d="M51.33,19.76a2.62,2.62,0,0,1,0,.3c0,3,0,1.29,0,4.32,0,.09,0,.18,0,.3H46.92V19.76Z" transform="translate(-28.58 -19.76)"/><path class="cls-1" d="M28.58,46.65,44,35.7v24H35.5c-.22,0-.37,0-.47-.27L28.65,46.84Z" transform="translate(-28.58 -19.76)"/><path class="cls-1" d="M46,35.7,61.42,46.63c0,.13-.09.25-.14.36L55,59.38a.49.49,0,0,1-.54.36c-2.71,0-5.41,0-8.12,0H46Z" transform="translate(-28.58 -19.76)"/><path class="cls-1" d="M32.62,41.39v-.46q0-6.06,0-12.11a2,2,0,0,1,2.15-2.16H55.22a2,2,0,0,1,2.14,2.14q0,6.07,0,12.15v.45L57,41.13Q51.15,37,45.32,32.89a.48.48,0,0,0-.67,0L33,41.12Zm4.63-10.86H39a1,1,0,1,0,0-1.94H35.56a1,1,0,1,0,0,1.94Zm0,1.55H35.57a1,1,0,1,0,0,1.94H39a1,1,0,1,0,0-1.94Zm15.43-3.5H51a1,1,0,1,0,0,1.94h3.44a1,1,0,0,0,1-1,.92.92,0,0,0-1-.93Zm0,3.49H51a.92.92,0,0,0-1,1,.91.91,0,0,0,1,1h3.44a1,1,0,0,0,1-1,.92.92,0,0,0-1-.95Z" transform="translate(-28.58 -19.76)"/></svg>