<svg id="Capa_1" data-name="Capa 1" xmlns="http://www.w3.org/2000/svg" viewBox="0 0 38.6 46.99"><defs><style>.cls-1{fill:#1c2748;}</style></defs><title>flota_12feb</title><path class="cls-1" d="M30.47,0a3.08,3.08,0,0,1,0,.36c0,3.55,0,1.52,0,5.07,0,.11,0,.21,0,.35H25.3V0Z" transform="translate(-3.73 0)"/><path class="cls-1" d="M3.73,31.6,21.86,18.74V47h-10c-.26,0-.43,0-.56-.31L3.82,31.83Z" transform="translate(-3.73 0)"/><path class="cls-1" d="M24.2,18.74,42.33,31.58c-.06.15-.11.29-.16.43L34.82,46.57a.58.58,0,0,1-.63.42c-3.18,0-6.36,0-9.54,0h-.44Z" transform="translate(-3.73 0)"/><path class="cls-1" d="M8.49,25.43v-.55q0-7.12,0-14.23A2.3,2.3,0,0,1,11,8.11h24a2.3,2.3,0,0,1,2.52,2.51q0,7.14,0,14.28v.52l-.46-.3q-6.86-4.83-13.71-9.68a.56.56,0,0,0-.78,0Q15.81,20.29,9,25.11Zm5.45-12.76h2a1.08,1.08,0,0,0,1.19-1.14,1.08,1.08,0,0,0-1.19-1.14h-4a1.08,1.08,0,0,0-1.19,1.14,1.08,1.08,0,0,0,1.19,1.14Zm0,1.83h-2a1.14,1.14,0,1,0,0,2.28h4a1.14,1.14,0,1,0,0-2.28Zm18.13-4.11h-2a1.08,1.08,0,0,0-1.14,1.14,1.07,1.07,0,0,0,1.15,1.13q2,0,4,0a1.13,1.13,0,0,0,1.17-1.18,1.08,1.08,0,0,0-1.18-1.1Zm0,4.11h-2a1.08,1.08,0,0,0-1.15,1.13,1.07,1.07,0,0,0,1.13,1.15q2,0,4,0A1.14,1.14,0,0,0,35.3,15.6a1.08,1.08,0,0,0-1.17-1.11Z" transform="translate(-3.73 0)"/></svg>