<svg id="Capa_1" data-name="Capa 1" xmlns="http://www.w3.org/2000/svg" viewBox="0 0 41.73 41.97"><defs><style>.cls-1{fill:#1c2748;}</style></defs><title>icono nosotros AO</title><path class="cls-1" d="M44.77,59.51H25.17c-.91,0-1.23-.31-1.23-1.22,0-1.28,0-17.32,0-18.6a5.74,5.74,0,0,1,1.5-4.11A10,10,0,0,1,34.13,32a8.8,8.8,0,0,1,3.06.79.47.47,0,0,0,.55,0,11.87,11.87,0,0,1,14.11,0,.48.48,0,0,0,.55,0,10.07,10.07,0,0,1,12.25,3.43,5.07,5.07,0,0,1,1,3c0,1.47,0,17.7,0,19.18a1,1,0,0,1-1.09,1.07ZM25.82,57.63h8.08c0-1.24,0-17.22,0-18.43a5.63,5.63,0,0,1,1.32-3.9l.77-.95-.25-.1a8.29,8.29,0,0,0-9.1,2.86,3.25,3.25,0,0,0-.81,1.83C25.79,40.24,25.82,56.3,25.82,57.63ZM53.59,34.32l.9,1.12A5.41,5.41,0,0,1,55.69,39c0,1.13,0,5.6,0,6.73V57.61h8.1c0-1.2,0-17.14,0-18.31a2.82,2.82,0,0,0-.61-1.89,12.28,12.28,0,0,0-1.9-1.93A8.13,8.13,0,0,0,53.59,34.32Z" transform="translate(-23.92 -17.55)"/><path class="cls-1" d="M38.88,23.46a5.91,5.91,0,1,1,5.91,5.92A5.92,5.92,0,0,1,38.88,23.46Z" transform="translate(-23.92 -17.55)"/><path class="cls-1" d="M33.14,31.86a5.07,5.07,0,1,1,5.1-5A5.08,5.08,0,0,1,33.14,31.86Zm3.22-5a3.21,3.21,0,1,0-3.2,3.2A3.22,3.22,0,0,0,36.36,26.81Z" transform="translate(-23.92 -17.55)"/><path class="cls-1" d="M61.5,26.75a5.08,5.08,0,1,1-5.2-5.06A5.07,5.07,0,0,1,61.5,26.75Zm-1.87,0A3.21,3.21,0,1,0,56.41,30,3.22,3.22,0,0,0,59.63,26.77Z" transform="translate(-23.92 -17.55)"/></svg>