<svg id="Capa_1" data-name="Capa 1" xmlns="http://www.w3.org/2000/svg" viewBox="0 0 45.88 46.14"><defs><style>.cls-1{fill:#1c2748;}</style></defs><title>nosotros_12feb</title><path class="cls-1" d="M22.91,46.65H1.36c-1,0-1.35-.34-1.35-1.34,0-1.41,0-19,0-20.45a6.31,6.31,0,0,1,1.65-4.52,11,11,0,0,1,9.57-3.93,9.68,9.68,0,0,1,3.37.87.52.52,0,0,0,.61,0,13.05,13.05,0,0,1,15.51,0,.53.53,0,0,0,.61,0,11.08,11.08,0,0,1,13.47,3.77,5.57,5.57,0,0,1,1.08,3.31c0,1.62,0,19.46,0,21.08a1,1,0,0,1-1.2,1.18ZM2.08,44.58H11c0-1.37,0-18.93,0-20.26A6.19,6.19,0,0,1,12.4,20l.85-1L13,18.87A9.11,9.11,0,0,0,3,22a3.57,3.57,0,0,0-.89,2C2,25.46,2.08,43.12,2.08,44.58ZM32.61,18.95l1,1.24a6,6,0,0,1,1.31,3.91c0,1.24,0,6.16,0,7.39V44.56h8.9c0-1.32,0-18.84,0-20.13a3.1,3.1,0,0,0-.67-2.08,13.5,13.5,0,0,0-2.09-2.13A8.94,8.94,0,0,0,32.61,18.95Z" transform="translate(0.01 -0.52)"/><path class="cls-1" d="M16.43,7a6.5,6.5,0,1,1,6.5,6.51A6.51,6.51,0,0,1,16.43,7Z" transform="translate(0.01 -0.52)"/><path class="cls-1" d="M10.13,16.24a5.58,5.58,0,1,1,5.61-5.55A5.58,5.58,0,0,1,10.13,16.24Zm3.54-5.55a3.53,3.53,0,1,0-3.52,3.52A3.54,3.54,0,0,0,13.67,10.7Z" transform="translate(0.01 -0.52)"/><path class="cls-1" d="M41.3,10.63a5.59,5.59,0,1,1-5.72-5.56A5.57,5.57,0,0,1,41.3,10.63Zm-2.05,0a3.53,3.53,0,1,0-3.54,3.55A3.54,3.54,0,0,0,39.25,10.65Z" transform="translate(0.01 -0.52)"/></svg>