<svg id="Capa_1" data-name="Capa 1" xmlns="http://www.w3.org/2000/svg" viewBox="0 0 40.11 40.12"><defs><style>.cls-1{fill:#1c2748;}</style></defs><title>icono servicios AO</title><path class="cls-1" d="M60.22,42.41a14.86,14.86,0,0,1-3.38,8.15L58,51.76c.54.54,1.08,1.06,1.61,1.61a1.32,1.32,0,1,1-1.88,1.86c-.93-.92-1.86-1.86-2.8-2.8a14.87,14.87,0,0,1-8.15,3.39v.36q0,1.75,0,3.51a1.34,1.34,0,1,1-2.66,0q0-1.74,0-3.48v-.39a14.94,14.94,0,0,1-8.23-3.45,1.27,1.27,0,0,1-.17.32c-.84.86-1.69,1.71-2.55,2.55A1.31,1.31,0,0,1,31,54.66a1.29,1.29,0,0,1,.39-1.31l2.53-2.53a2.87,2.87,0,0,1,.29-.23,14.89,14.89,0,0,1-3.42-8.18H26.87a1.33,1.33,0,1,1,0-2.66h3.88a14.84,14.84,0,0,1,3.38-8.15L32.47,30c-.38-.38-.76-.75-1.13-1.14A1.33,1.33,0,1,1,33.22,27c.84.83,1.67,1.67,2.51,2.5a3.09,3.09,0,0,1,.24.3,14.88,14.88,0,0,1,8.18-3.42V26c0-1.21,0-2.43,0-3.64a1.33,1.33,0,0,1,1-1.3,1.3,1.3,0,0,1,1.45.7,1.78,1.78,0,0,1,.15.71c0,1.17,0,2.34,0,3.51v.39A15,15,0,0,1,55,29.79a1.34,1.34,0,0,1,.18-.31q1.28-1.3,2.57-2.58a1.29,1.29,0,0,1,1.51-.27,1.31,1.31,0,0,1,.76,1.3,1.42,1.42,0,0,1-.47.93l-2.48,2.48a2,2,0,0,1-.31.21,14.91,14.91,0,0,1,3.43,8.2h3.92a1.33,1.33,0,1,1,0,2.66H60.22ZM44.14,29a12,12,0,0,0-6.21,2.57s0,.05,0,.06L42,35.71a.25.25,0,0,0,.22.05l1.92-.86ZM36,48.63l4.19-4.18-.83-2H33.43A12,12,0,0,0,36,48.63ZM48.82,35.75,53,31.56A12,12,0,0,0,46.83,29v5.91Zm-15.39,4h5.91l.83-2L36,33.56A12,12,0,0,0,33.43,39.74Zm17.38-2,.83,2h5.91A12,12,0,0,0,55,33.54Zm.85,4.7c-.26.61-.5,1.2-.78,1.76a.33.33,0,0,0,.07.48q1.83,1.81,3.64,3.63a4.63,4.63,0,0,1,.33.43,12.13,12.13,0,0,0,2.63-6.3Zm-7.5,4.82c-.61-.26-1.2-.5-1.76-.77a.33.33,0,0,0-.48.06q-1.76,1.78-3.54,3.55c-.15.15-.32.27-.51.43a12.11,12.11,0,0,0,6.3,2.63Zm2.69,5.9a12.1,12.1,0,0,0,6.24-2.6L49,46.45a.25.25,0,0,0-.22,0l-1.91.86Zm-1.35-9.27a2.8,2.8,0,1,0-2.8-2.81A2.82,2.82,0,0,0,45.49,43.88Z" transform="translate(-25.43 -21.02)"/></svg>