<svg id="Capa_1" data-name="Capa 1" xmlns="http://www.w3.org/2000/svg" viewBox="0 0 46.01 46.03"><defs><style>.cls-1{fill:#1c2748;}</style></defs><title>servicios_12feb</title><path class="cls-1" d="M39.9,24.54A17,17,0,0,1,36,33.89l1.39,1.38c.62.61,1.24,1.22,1.84,1.84a1.52,1.52,0,1,1-2.16,2.14C36,38.19,35,37.12,33.88,36a17.06,17.06,0,0,1-9.35,3.89v.41q0,2,0,4a1.53,1.53,0,1,1-3.05,0q0-2,0-4v-.45A17.14,17.14,0,0,1,12,36a1.45,1.45,0,0,1-.2.36c-1,1-1.94,2-2.93,2.93a1.51,1.51,0,0,1-2.58-.66,1.48,1.48,0,0,1,.44-1.5l2.9-2.9a3.3,3.3,0,0,1,.34-.26,17.08,17.08,0,0,1-3.92-9.39H1.64a1.53,1.53,0,1,1,0-3.05H6.09A17,17,0,0,1,10,12.15l-1.9-1.9c-.43-.43-.87-.86-1.3-1.3A1.52,1.52,0,1,1,8.93,6.82c1,1,1.92,1.91,2.87,2.87a3.55,3.55,0,0,1,.27.35,17.08,17.08,0,0,1,9.39-3.92V5.71c0-1.39,0-2.79,0-4.18A1.53,1.53,0,0,1,22.66,0a1.49,1.49,0,0,1,1.67.8,2,2,0,0,1,.18.81c0,1.34,0,2.68,0,4v.45a17.16,17.16,0,0,1,9.43,4,1.54,1.54,0,0,1,.2-.36q1.47-1.49,3-3a1.48,1.48,0,0,1,1.73-.31,1.5,1.5,0,0,1,.87,1.49A1.63,1.63,0,0,1,39.16,9l-2.85,2.84a2.27,2.27,0,0,1-.35.24,17.11,17.11,0,0,1,3.94,9.41h4.49a1.53,1.53,0,1,1,0,3.05H39.9ZM21.45,9.18a13.82,13.82,0,0,0-7.12,2.95s0,.06,0,.07L19,16.86a.29.29,0,0,0,.26.06l2.2-1ZM12.1,31.68l4.8-4.8-1-2.31H9.16A13.79,13.79,0,0,0,12.1,31.68ZM26.82,16.91l4.8-4.81a13.79,13.79,0,0,0-7.09-2.91V16ZM9.16,21.48h6.78l.95-2.29-4.81-4.8A13.78,13.78,0,0,0,9.16,21.48Zm19.93-2.31,1,2.3h6.78a13.77,13.77,0,0,0-2.94-7.1Zm1,5.39c-.3.7-.57,1.38-.89,2a.38.38,0,0,0,.08.55q2.1,2.07,4.18,4.17a5.31,5.31,0,0,1,.38.49,13.91,13.91,0,0,0,3-7.23Zm-8.61,5.53c-.7-.3-1.38-.57-2-.89a.38.38,0,0,0-.55.07q-2,2-4.06,4.07c-.17.17-.37.31-.59.5a13.89,13.89,0,0,0,7.22,3Zm3.09,6.77a13.88,13.88,0,0,0,7.16-3L27,29.18a.29.29,0,0,0-.26-.06l-2.19,1ZM23,26.23A3.21,3.21,0,1,0,19.79,23,3.23,3.23,0,0,0,23,26.23Z" transform="translate(0.01 0)"/></svg>