<svg id="Capa_1" data-name="Capa 1" xmlns="http://www.w3.org/2000/svg" viewBox="0 0 38.4 46.59"><defs><style>.cls-1{fill:#1c2748;}</style></defs><title>terminal_12feb</title><path class="cls-1" d="M41.69,15.81A19.29,19.29,0,0,0,22.86.42L21,.53c-.26,0-.51.05-.77.09A18.71,18.71,0,0,0,7,8.86,18.51,18.51,0,0,0,4.65,25.5a28.68,28.68,0,0,0,4.42,8.37,59.53,59.53,0,0,0,13.52,13,.45.45,0,0,0,.63,0,63.54,63.54,0,0,0,10.56-9.39,38,38,0,0,0,6.18-9A19.66,19.66,0,0,0,41.69,15.81ZM22.88,34.69a15,15,0,1,1,14.92-15A15,15,0,0,1,22.88,34.69Z" transform="translate(-3.67 -0.42)"/><path class="cls-1" d="M26.41,23.54l.85.79A5,5,0,0,1,23.76,27V20h2.61V18.18H23.75V16.25A2.7,2.7,0,0,0,22.85,11a2.68,2.68,0,0,0-2.61,2,2.72,2.72,0,0,0,1.68,3.2V18.2H19.29V20h2.63V27a5,5,0,0,1-3.31-2.34l.91-1.21a.49.49,0,0,0-.39-.79l-3,0a6.65,6.65,0,0,0,13.28,0h-2.7A.49.49,0,0,0,26.41,23.54ZM22.82,14.6a.87.87,0,0,1-.88-.88.89.89,0,0,1,.87-.9.91.91,0,0,1,.91.91A.89.89,0,0,1,22.82,14.6Z" transform="translate(-3.67 -0.42)"/></svg>