<svg id="Capa_1" data-name="Capa 1" xmlns="http://www.w3.org/2000/svg" viewBox="0 0 31.69 38.45"><defs><style>.cls-1{fill:#1c2748;}</style></defs><title>icono terminal AO</title><path class="cls-1" d="M60.53,33.22A15.92,15.92,0,0,0,45,20.52l-1.53.09c-.21,0-.42,0-.64.08a15.44,15.44,0,0,0-10.89,6.81,15.27,15.27,0,0,0-2,13.73,23.67,23.67,0,0,0,3.65,6.9A49.13,49.13,0,0,0,44.76,58.87a.37.37,0,0,0,.52,0A52.43,52.43,0,0,0,54,51.11a31.36,31.36,0,0,0,5.1-7.45A16.22,16.22,0,0,0,60.53,33.22ZM45,48.81A12.36,12.36,0,1,1,57.32,36.44,12.35,12.35,0,0,1,45,48.81Z" transform="translate(-29.15 -20.52)"/><path class="cls-1" d="M47.92,39.61l.7.65a4.14,4.14,0,0,1-2.89,2.23V36.65h2.15V35.18H45.72V33.59A2.23,2.23,0,0,0,45,29.28,2.21,2.21,0,0,0,42.83,31a2.25,2.25,0,0,0,1.38,2.64v1.6H42v1.47h2.17V42.5a4.08,4.08,0,0,1-2.73-1.93l.75-1a.41.41,0,0,0-.32-.65l-2.44,0a5.49,5.49,0,0,0,11,0H48.19A.41.41,0,0,0,47.92,39.61Zm-3-7.38a.72.72,0,0,1-.73-.73.74.74,0,0,1,.72-.74.75.75,0,0,1,.75.75A.74.74,0,0,1,45,32.23Z" transform="translate(-29.15 -20.52)"/></svg>